<svg xmlns="http://www.w3.org/2000/svg" width="1000" height="1000" viewBox="0 0 2250 2250"
        preserveAspectRatio="xMidYMid meet">
        <g transform="translate(0,2250) scale(0.1,-0.1)" fill="#000" stroke="none">
                <path
                        d="M4810 12658 l0 -191 191 6 191 7 -7 -32 c-4 -18 -10 -593 -14 -1278 -6 -915 -11 -1256 -20 -1288 -37 -136 -103 -191 -247 -208 -104 -12 -94 8 -94 -179 l0 -165 1339 0 1339 0 6 83 c3 45 10 314 16 597 6 283 15 539 20 567 14 82 48 148 100 197 65 61 121 76 296 83 l142 6 5 -554 c2 -305 8 -565 12 -578 l8 -24 -226 7 -227 7 0 -195 0 -196 760 0 760 0 0 165 c0 187 10 167 -94 179 -142 17 -203 66 -247 201 -10 32 -14 302 -20 1275 -4 679 -11 1256 -14 1283 l-7 47 191 -7 191 -6 0 191 0 192 -1260 0 -1260 0 0 -37 c0 -21 -7 -236 -15 -478 -8 -242 -15 -443 -15 -447 0 -5 74 -8 164 -8 l164 0 7 78 c17 193 59 306 152 403 90 95 181 137 338 158 92 12 396 0 458 -19 52 -15 110 -70 135 -128 36 -83 42 -183 42 -683 l0 -479 -261 0 -261 0 6 68 c3 37 8 133 12 215 l6 147 -195 0 -196 0 -3 -672 -4 -673 -26 -96 c-68 -247 -211 -404 -424 -465 -50 -15 -122 -18 -453 -22 l-393 -4 7 39 c4 21 10 598 14 1283 7 1309 6 1271 52 1361 37 74 111 111 245 125 l64 7 0 163 0 164 -725 0 -725 0 0 -192z" />
                <path
                        d="M16345 11766 c-171 -54 -241 -167 -261 -418 l-6 -77 -71 -3 -72 -3 -3 -67 -3 -68 74 0 75 0 6 -31 c9 -46 6 -565 -3 -623 -9 -56 -45 -96 -87 -96 -23 0 -24 -3 -24 -55 l0 -55 245 0 245 0 0 66 0 66 -64 -4 -63 -3 -2 368 -2 367 59 0 c33 0 87 3 121 6 l61 7 0 63 0 64 -121 0 -121 0 4 153 c5 191 24 237 102 237 47 0 56 -9 56 -57 0 -55 12 -78 50 -98 82 -42 170 16 170 112 0 32 -31 87 -63 114 -53 45 -213 63 -302 35z" />
                <path
                        d="M15521 11742 c-48 -24 -73 -62 -79 -120 -9 -95 48 -162 139 -162 77 0 131 60 131 144 -1 72 -33 122 -95 145 -39 15 -57 14 -96 -7z" />
                <path
                        d="M9880 11599 l0 -72 73 7 72 6 -3 -517 c-2 -308 -7 -533 -13 -556 -13 -50 -38 -73 -88 -82 l-41 -7 0 -54 0 -54 519 0 518 0 7 61 c3 34 6 138 6 230 l0 169 -54 0 -53 0 -7 -64 c-9 -94 -33 -154 -80 -201 -57 -57 -94 -65 -292 -65 l-169 0 2 507 c2 280 5 527 8 549 7 51 41 85 92 93 l38 6 0 55 0 55 -267 3 -268 2 0 -71z" />
                <path
                        d="M11413 11285 c-85 -23 -153 -63 -218 -129 -102 -102 -155 -238 -155 -396 0 -163 47 -287 145 -386 94 -94 195 -134 345 -134 158 0 277 47 383 151 37 37 67 73 66 80 0 8 -16 27 -34 42 l-34 28 -62 -51 c-86 -68 -153 -93 -254 -94 -63 0 -89 4 -121 21 -44 23 -94 75 -119 123 -23 44 -45 148 -45 213 l0 57 113 1 c61 1 211 4 332 8 l220 6 -3 60 c-4 69 -25 152 -54 209 -28 55 -99 128 -150 153 -102 51 -248 67 -355 38z m207 -127 c57 -29 100 -106 100 -180 l0 -48 -201 0 -202 0 7 43 c8 51 54 135 88 160 32 24 95 46 133 47 17 0 51 -10 75 -22z" />
                <path
                        d="M12403 11280 c-162 -42 -253 -127 -253 -236 0 -93 89 -152 173 -113 48 22 74 109 47 159 -8 15 -5 24 12 40 31 29 121 53 166 45 90 -16 121 -72 122 -216 l0 -96 -92 -12 c-99 -13 -249 -58 -308 -93 -52 -31 -119 -98 -143 -143 -17 -31 -22 -57 -22 -120 0 -89 19 -138 72 -186 57 -54 90 -64 203 -64 121 0 188 21 257 80 22 19 43 31 47 28 3 -3 6 -24 6 -45 l0 -38 175 0 175 0 0 66 0 66 -62 -4 -63 -3 0 330 c0 320 -1 332 -23 386 -32 81 -100 141 -187 168 -85 27 -203 27 -302 1z m250 -803 c-31 -35 -113 -67 -171 -67 -48 0 -58 4 -88 34 -29 29 -34 41 -34 80 0 115 92 182 285 209 19 2 20 -4 23 -117 2 -102 0 -121 -15 -139z" />
                <path
                        d="M13760 11291 c-56 -17 -115 -56 -170 -109 l-58 -57 -7 83 -7 82 -38 0 c-21 0 -63 -12 -95 -26 -43 -20 -79 -28 -146 -32 l-89 -5 0 -63 0 -64 68 0 67 0 -2 -117 c-2 -65 -4 -210 -6 -323 -3 -249 -13 -280 -93 -280 -22 0 -24 -3 -24 -55 l0 -55 245 0 245 0 0 65 0 65 -62 0 -63 0 3 272 3 273 29 45 c47 73 126 140 165 140 15 0 24 -9 30 -32 20 -65 109 -97 175 -63 58 30 81 126 46 193 -29 56 -136 87 -216 63z" />
                <path
                        d="M14650 11282 c-64 -22 -137 -58 -163 -80 -22 -20 -28 -13 -34 43 -6 45 -6 45 -45 45 -21 0 -58 -10 -81 -21 -27 -14 -77 -25 -144 -32 l-103 -11 0 -63 0 -63 68 0 67 0 -2 -117 c-2 -65 -4 -210 -6 -323 -3 -249 -13 -280 -93 -280 -22 0 -24 -3 -24 -55 l0 -55 245 0 245 0 0 66 0 66 -62 -4 -63 -3 3 329 c3 324 4 329 25 347 75 63 194 86 264 50 59 -29 83 -85 94 -214 10 -129 10 -367 0 -431 -9 -56 -45 -96 -87 -96 -23 0 -24 -3 -24 -55 l0 -55 245 0 245 0 0 66 0 66 -65 -4 -65 -3 6 200 c14 441 -31 611 -178 675 -73 32 -192 37 -268 12z" />
                <path
                        d="M15575 11268 c-26 -13 -74 -24 -142 -31 l-103 -11 0 -63 0 -63 68 0 67 0 -2 -117 c-2 -65 -4 -210 -6 -323 -3 -249 -13 -280 -93 -280 -22 0 -24 -3 -24 -55 l0 -55 245 0 245 0 0 66 0 66 -62 -4 -63 -3 3 448 3 447 -48 0 c-29 -1 -64 -9 -88 -22z" />
                <path
                        d="M16620 11205 l0 -65 44 0 44 0 21 -70 c26 -84 42 -120 241 -529 l152 -315 -17 -55 c-46 -147 -131 -301 -166 -301 -3 0 -9 19 -12 42 -15 113 -146 123 -200 15 -23 -45 -15 -96 21 -139 34 -40 79 -58 144 -58 69 1 123 26 175 83 73 79 107 160 321 767 171 484 197 539 272 570 30 12 31 15 28 64 l-3 51 -172 3 -173 2 0 -65 0 -65 55 0 c30 0 55 -2 55 -4 0 -2 -11 -28 -24 -59 -14 -30 -57 -153 -96 -273 -39 -121 -77 -232 -85 -249 l-13 -30 -10 25 c-6 14 -56 126 -111 249 -56 122 -104 241 -107 262 -8 49 13 85 56 94 29 6 30 9 30 61 l0 54 -235 0 -235 0 0 -65z" />
        </g>
</svg>